HIERARCHY
ROOT Hips
{
	OFFSET 0.00000 0.00000 0.00000
	CHANNELS 6 Xposition Yposition Zposition Zrotation Yrotation Xrotation 
	JOINT LHipJoint
	{
		OFFSET 0 0 0
		CHANNELS 3 Zrotation Yrotation Xrotation
		JOINT LeftHip
		{
			OFFSET 1.64549 -1.70879 0.84566
			CHANNELS 3 Zrotation Yrotation Xrotation
			JOINT LeftKnee
			{
				OFFSET 2.24963 -6.18082 0.00000
				CHANNELS 3 Zrotation Yrotation Xrotation
				JOINT LeftAnkle
				{
					OFFSET 2.71775 -7.46697 0.00000
					CHANNELS 3 Zrotation Yrotation Xrotation
					JOINT LeftToe
					{
						OFFSET 0.18768 -0.51564 2.24737
						CHANNELS 3 Zrotation Yrotation Xrotation
						End Site
						{
							OFFSET 0.00000 -0.00000 1.15935
						}
					}
				}
			}
		}
	}
	JOINT RHipJoint
	{
		OFFSET 0 0 0
		CHANNELS 3 Zrotation Yrotation Xrotation
		JOINT RightHip
		{
			OFFSET -1.58830 -1.70879 0.84566
			CHANNELS 3 Zrotation Yrotation Xrotation
			JOINT RightKnee
			{
				OFFSET -2.25006 -6.18201 0.00000
				CHANNELS 3 Zrotation Yrotation Xrotation
				JOINT RightAnkle
				{
					OFFSET -2.72829 -7.49593 0.00000
					CHANNELS 3 Zrotation Yrotation Xrotation
					JOINT RightToe
					{
						OFFSET -0.21541 -0.59185 2.10643
						CHANNELS 3 Zrotation Yrotation Xrotation
						End Site
						{
							OFFSET -0.00000 -0.00000 1.09838
						}
					}
				}
			}
		}
	}
	JOINT lowerback
	{
		OFFSET 0 0 0
		CHANNELS 3 Zrotation Yrotation Xrotation
		JOINT Chest
		{
			OFFSET 0.03142 2.10496 -0.11038
			CHANNELS 3 Zrotation Yrotation Xrotation
			JOINT Chest2
			{
				OFFSET -0.01863 2.10897 -0.06956
				CHANNELS 3 Zrotation Yrotation Xrotation
				JOINT lowerneck
				{
					OFFSET 0 0 0
					CHANNELS 3 Zrotation Yrotation Xrotation
					JOINT Neck
					{
						OFFSET -0.02267 1.73238 0.00451
						CHANNELS 3 Zrotation Yrotation Xrotation
						JOINT Head
						{
							OFFSET -0.05808 1.54724 -0.61749
							CHANNELS 3 Zrotation Yrotation Xrotation
							End Site
							{
								OFFSET -0.01396 1.71468 -0.21082
							}
						}
					}
				}
				JOINT LeftCollar
				{
					OFFSET 0 0 0
					CHANNELS 3 Zrotation Yrotation Xrotation
					JOINT LeftShoulder
					{
						OFFSET 3.44898 0.50298 0.21920
CHANNELS 3 Zrotation Xrotation Yrotation
						JOINT LeftElbow
						{
OFFSET 0 -5.419170 -0.000000
CHANNELS 3 Zrotation Xrotation Yrotation
							JOINT LeftWrist
							{
OFFSET 0 -2.443730 0.000000
CHANNELS 3 Zrotation Xrotation Yrotation
								JOINT lhand
								{
									OFFSET 0 0 0
CHANNELS 3 Zrotation Xrotation Yrotation
									JOINT LFingers
									{
OFFSET 0 -0.727500 0.000000
CHANNELS 3 Zrotation Xrotation Yrotation
										End Site
										{
OFFSET 0 -0.586530 0.000000
										}
									}
								}
								JOINT LThumb
								{
OFFSET 0 0.000000 0.000000
CHANNELS 3 Zrotation Xrotation Yrotation
									End Site
									{
OFFSET 0 -0.595490 0.595490
									}
								}
							}
						}
					}
				}
				JOINT RightCollar
				{
					OFFSET 0 0 0
					CHANNELS 3 Zrotation Yrotation Xrotation
					JOINT RightShoulder
					{
						OFFSET -3.23015 0.55830 0.31051
CHANNELS 3 Zrotation Xrotation Yrotation
						JOINT RightElbow
						{
OFFSET 0 -5.589760 0.000140
CHANNELS 3 Zrotation Xrotation Yrotation
							JOINT RightWrist
							{
OFFSET 0 -2.480600 0.000000
CHANNELS 3 Zrotation Xrotation Yrotation
								JOINT rhand
								{
									OFFSET 0 0 0
CHANNELS 3 Zrotation Xrotation Yrotation
									JOINT RFingers
									{
OFFSET 0 -0.816010 0.000000
CHANNELS 3 Zrotation Xrotation Yrotation
										End Site
										{
OFFSET 0 -0.657890 0.000000
										}
									}
								}
								JOINT RThumb
								{
OFFSET 0 0.000000 0.000000
CHANNELS 3 Zrotation Xrotation Yrotation
									End Site
									{
OFFSET 0 -0.667930 0.667930
									}
								}
							}
						}
					}
				}
			}
		}
	}
}
MOTION
Frames: 6
Frame Time: 0.008333333333333333
1.626400 16.188200 -32.770000 -4.762500 5.418200 18.735100 0.000000 0.000000 0.000000 -20.756000 -16.378500 -33.952500 4.516500 12.817700 38.689900 4.410200 11.528700 -44.605500 0.155100 2.537300 6.993100 0.000000 0.000000 0.000000 13.779000 24.862200 -65.871300 -5.280200 -13.692500 42.019500 4.752500 -36.072300 -24.029800 -4.533400 -12.838200 38.765900 2.367900 0.747100 -6.642500 1.037300 1.036200 -10.146200 -0.230800 0.407700 -6.880000 -1.235800 -1.048500 -10.955800 4.904000 -3.165300 40.699200 1.894800 -0.799400 16.629700 -0.000000 -0.000000 0.000000 120.889300 -23.651600 48.699600 16.436900 -26.109400 3.836200 -5.692200 16.646300 -18.094600 0.000000 0.000000 0.000000 -7.125000 0.000000 0.000000 -31.085100 45.536300 0.456500 -0.000000 -0.000000 0.000000 -114.844300 -25.632500 -40.956800 -14.270800 -23.120500 -2.933600 8.173400 6.808100 -5.419400 0.000000 0.000000 0.000000 7.125000 0.000000 -0.000000 25.261600 24.344800 13.953800
1.628985 16.194718 -32.752556 -4.684826 5.753482 18.809407 0.000000 0.000000 0.000000 -20.859192 -16.221036 -33.921980 4.479410 12.772330 38.522152 4.307747 11.601356 -44.216038 0.123964 2.261672 6.229705 0.000000 0.000000 0.000000 13.166703 25.077776 -66.027564 -5.291518 -13.704713 42.067256 4.425310 -35.577865 -25.927438 -4.651174 -12.979892 39.293150 2.350401 0.618503 -6.792938 1.072618 0.860895 -10.115761 -0.183414 0.323835 -6.766895 -1.231702 -1.072656 -10.610763 4.781510 -3.136973 40.381246 1.832709 -0.811557 16.363779 0.000000 0.000000 0.000000 123.370729 -24.066654 51.269328 17.167724 -27.076930 4.164193 -5.122117 15.693288 -17.794946 0.000000 0.000000 0.000000 -7.125000 0.000000 0.000000 -30.457992 45.347683 0.289751 0.000000 0.000000 0.000000 -117.152273 -25.949294 -43.781133 -14.667797 -23.680663 -3.091643 8.468219 7.071139 -5.817712 0.000000 0.000000 0.000000 7.125000 0.000000 0.000000 25.377484 23.970778 14.281829
1.628687 16.197737 -32.740487 -4.631915 6.285301 19.034049 0.000000 0.000000 0.000000 -20.829826 -16.171826 -34.139154 4.454144 12.741452 38.408156 4.157293 11.779566 -43.676918 0.070598 1.712186 4.711035 0.000000 0.000000 0.000000 12.288755 25.473206 -66.388343 -5.304434 -13.718590 42.121708 4.160212 -35.349069 -27.882671 -4.827594 -13.186832 40.072255 2.543570 0.566743 -6.193473 0.895951 0.820209 -10.759275 -0.483157 0.268933 -7.815774 -1.154969 -1.205892 -9.804828 4.885118 -3.393122 40.336775 1.822218 -0.902650 16.154867 0.000000 0.000000 0.000000 125.703330 -25.146423 52.617242 18.062299 -28.236493 4.578842 -4.974771 13.998713 -17.254119 0.000000 0.000000 0.000000 -7.125000 0.000000 0.000000 -30.071188 44.895072 -0.085885 0.000000 0.000000 0.000000 -118.612011 -26.167416 -45.102449 -15.206853 -24.433323 -3.311141 8.659713 6.933967 -6.084622 0.000000 0.000000 0.000000 7.125000 0.000000 0.000000 25.451106 23.720433 14.499165
1.625473 16.197201 -32.728711 -4.539042 6.480687 19.386187 0.000000 0.000000 0.000000 -20.786338 -16.291652 -34.468262 4.438627 12.722259 38.337472 4.084193 11.780195 -43.365371 0.048432 1.415865 3.893943 0.000000 0.000000 0.000000 12.062186 25.286266 -66.849518 -5.312019 -13.726833 42.153960 3.745114 -34.570987 -29.093972 -5.223055 -13.629704 41.775786 2.372469 0.486775 -6.299062 0.951627 0.719889 -10.921727 -0.327780 0.233593 -7.940369 -1.136569 -1.182076 -9.552390 4.814701 -3.318148 40.099383 1.792672 -0.883354 15.961782 0.000000 0.000000 0.000000 127.826105 -25.666455 54.629694 18.991789 -29.406340 5.027837 -4.421047 12.890365 -17.163539 0.000000 0.000000 0.000000 -7.125000 0.000000 0.000000 -29.563206 44.883008 -0.093640 0.000000 0.000000 0.000000 -120.624497 -26.300117 -46.380141 -15.895513 -25.377453 -3.601852 8.180919 5.112683 -5.811701 0.000000 0.000000 0.000000 7.125000 0.000000 0.000000 25.187114 23.986058 14.139849
1.625532 16.194994 -32.714649 -4.365180 6.729374 19.776179 0.000000 0.000000 0.000000 -20.851833 -16.379672 -34.842447 4.432681 12.714881 38.310332 4.015423 11.756603 -43.057688 0.033939 1.189270 3.269787 0.000000 0.000000 0.000000 12.442784 24.323477 -67.380037 -5.311271 -13.726010 42.150892 3.720551 -34.207319 -28.116414 -5.394655 -13.814936 42.501053 2.273999 0.388726 -6.422065 0.915139 0.589936 -11.155056 -0.309186 0.172570 -8.133381 -1.104367 -1.192799 -9.126135 4.736213 -3.302454 39.986414 1.751640 -0.889309 15.792265 0.000000 0.000000 0.000000 129.912699 -26.224022 56.426501 19.980328 -30.617908 5.521633 -4.240748 11.856916 -16.719004 0.000000 0.000000 0.000000 -7.125000 0.000000 0.000000 -29.203834 44.514866 -0.383767 0.000000 0.000000 0.000000 -122.396633 -26.652367 -48.390231 -16.525074 -26.227249 -3.875234 8.577095 4.443734 -5.955974 0.000000 0.000000 0.000000 7.125000 0.000000 0.000000 25.422130 23.840690 14.398948
1.626969 16.189228 -32.696890 -4.378258 7.021826 20.045687 0.000000 0.000000 0.000000 -20.743200 -16.399424 -35.091057 4.431431 12.713444 38.304987 4.057195 11.376439 -43.031237 0.020442 0.923354 2.537858 0.000000 0.000000 0.000000 13.112410 23.378420 -67.717243 -5.303330 -13.717403 42.117102 3.571936 -33.607814 -27.547249 -5.608151 -14.036187 43.385405 2.430184 0.233734 -5.953177 0.960654 0.409600 -11.544206 -0.346622 0.063247 -8.850662 -1.721862 -1.223008 -8.271916 5.319423 -3.390752 39.389687 2.083242 -0.964080 15.315069 0.000000 0.000000 0.000000 131.770834 -26.896003 58.255919 20.986110 -31.810154 6.043576 -4.126056 11.249791 -16.178684 0.000000 0.000000 0.000000 -7.125000 0.000000 0.000000 -28.861366 44.053105 -0.739104 0.000000 0.000000 0.000000 -124.098274 -27.458246 -50.755332 -17.085792 -26.968986 -4.127115 8.774903 4.150087 -6.070595 0.000000 0.000000 0.000000 7.125000 0.000000 0.000000 25.530403 23.729170 14.548989
